<svg id="svg" version="1.1" xmlns="http://www.w3.org/2000/svg" xmlns:xlink="http://www.w3.org/1999/xlink" width="400" height="481.4070351758794" viewBox="0, 0, 400,481.4070351758794"><g id="svgg"><path id="path0" d="M156.171 50.512 C 155.901 50.920,155.357 51.705,154.962 52.257 C 154.216 53.299,152.856 55.342,151.758 57.071 C 148.316 62.489,144.927 69.030,143.029 73.922 C 142.326 75.733,142.171 76.118,141.862 76.830 C 141.612 77.406,140.181 81.750,139.847 82.949 C 138.340 88.346,137.720 91.864,137.306 97.377 C 136.715 105.243,137.909 113.010,140.646 119.112 C 141.546 121.117,141.239 121.918,137.704 126.784 C 137.341 127.283,136.893 128.095,136.708 128.590 C 136.523 129.084,136.209 129.850,136.011 130.291 C 135.812 130.732,135.519 131.499,135.358 131.996 C 135.198 132.492,134.964 133.217,134.838 133.606 C 134.713 133.994,134.515 134.897,134.397 135.612 C 134.280 136.326,134.101 137.407,134.001 138.014 C 133.900 138.621,133.755 141.164,133.679 143.665 C 133.503 149.429,133.598 149.687,136.350 150.885 C 136.879 151.115,137.691 151.473,138.153 151.680 C 138.616 151.887,139.124 152.056,139.282 152.056 C 140.554 152.056,139.085 153.430,136.736 154.438 C 136.640 154.479,135.873 154.976,135.031 155.543 C 128.766 159.757,123.518 165.287,120.444 170.913 C 120.233 171.299,120.015 171.660,119.960 171.715 C 119.625 172.050,117.964 175.803,117.296 177.733 C 111.329 194.980,117.614 214.304,132.399 224.173 C 133.225 224.724,133.947 225.230,134.002 225.296 C 134.390 225.762,140.038 228.563,141.923 229.225 C 144.271 230.048,147.840 231.077,149.833 231.505 C 151.281 231.816,151.044 231.895,148.629 231.907 C 146.076 231.920,142.700 232.165,140.421 232.502 C 139.594 232.624,138.014 232.851,136.911 233.005 C 135.807 233.160,134.453 233.386,133.902 233.507 C 133.350 233.629,132.222 233.852,131.394 234.003 C 130.567 234.153,129.529 234.373,129.087 234.492 C 128.646 234.611,127.743 234.834,127.081 234.989 C 124.921 235.493,122.097 236.264,120.562 236.770 C 119.734 237.042,118.470 237.446,117.753 237.667 C 115.925 238.230,109.801 240.457,108.779 240.930 C 108.311 241.147,107.877 241.324,107.815 241.324 C 107.752 241.324,107.322 241.495,106.860 241.703 C 106.397 241.912,105.115 242.464,104.012 242.929 C 102.909 243.395,101.780 243.898,101.505 244.048 C 100.131 244.795,92.559 248.345,92.340 248.345 C 91.719 248.345,83.086 253.151,82.882 253.611 C 82.845 253.694,82.731 253.761,82.628 253.761 C 82.299 253.761,78.977 256.225,75.932 258.729 C 72.901 261.222,66.871 267.389,64.493 270.431 C 60.317 275.773,57.007 280.618,54.915 284.453 C 53.449 287.142,52.943 288.094,52.302 289.368 C 51.632 290.702,51.310 291.388,50.045 294.183 C 49.256 295.925,47.159 301.386,46.694 302.909 C 46.475 303.626,46.041 304.980,45.730 305.918 C 45.206 307.496,44.199 311.480,43.422 315.045 C 41.538 323.699,41.205 338.422,42.734 345.537 C 42.828 345.978,42.960 346.745,43.026 347.242 C 43.417 350.176,45.537 357.377,46.968 360.630 C 47.174 361.097,47.342 361.531,47.342 361.594 C 47.342 361.656,47.533 362.131,47.766 362.649 C 52.696 373.602,59.937 382.820,69.709 390.584 C 72.557 392.847,79.554 397.593,80.042 397.593 C 80.151 397.593,80.241 397.660,80.242 397.743 C 80.243 397.826,80.446 397.990,80.694 398.108 C 81.131 398.316,83.918 399.792,86.362 401.110 C 87.025 401.467,88.830 402.319,90.374 403.003 C 91.917 403.686,93.541 404.408,93.982 404.607 C 95.805 405.430,98.185 406.107,104.514 407.604 C 108.720 408.599,113.804 409.470,118.756 410.044 C 119.694 410.152,120.597 410.279,120.762 410.325 C 123.466 411.075,140.635 411.016,145.938 410.239 C 146.600 410.142,147.909 409.959,148.847 409.833 C 157.121 408.716,169.031 405.474,175.055 402.698 C 175.403 402.538,175.739 402.407,175.803 402.407 C 175.866 402.407,176.509 402.136,177.232 401.805 C 177.954 401.474,178.596 401.204,178.657 401.204 C 178.821 401.204,186.313 397.462,187.362 396.856 C 187.859 396.569,188.716 396.088,189.268 395.788 C 192.722 393.906,203.564 386.764,204.213 385.944 C 204.268 385.874,204.855 385.520,205.517 385.157 C 206.179 384.794,206.946 384.345,207.222 384.160 C 207.735 383.815,212.262 381.577,214.243 380.689 C 217.174 379.375,222.542 377.730,225.577 377.216 C 233.638 375.851,241.267 376.687,247.652 379.637 C 248.491 380.024,249.218 380.341,249.269 380.341 C 249.424 380.341,253.412 382.776,254.162 383.328 C 257.587 385.849,261.631 389.680,263.892 392.545 C 264.443 393.244,264.989 393.921,265.105 394.050 C 265.588 394.585,268.741 399.156,269.105 399.850 C 269.322 400.263,269.569 400.602,269.654 400.602 C 269.740 400.602,269.809 400.694,269.809 400.806 C 269.809 400.919,270.051 401.393,270.346 401.860 C 270.641 402.326,271.180 403.250,271.544 403.912 C 271.908 404.574,272.295 405.094,272.405 405.068 C 272.514 405.041,272.560 405.133,272.507 405.272 C 272.453 405.411,272.765 406.236,273.199 407.105 C 273.957 408.623,273.987 408.655,273.949 407.904 C 273.924 407.417,273.447 406.175,272.686 404.614 C 271.498 402.177,270.809 400.449,270.131 398.210 L 269.802 397.121 270.357 396.505 C 270.907 395.896,270.907 395.894,270.382 396.355 C 270.090 396.611,269.806 396.746,269.751 396.655 C 269.546 396.318,268.438 391.450,268.001 388.967 C 267.234 384.614,265.295 377.896,264.558 377.041 C 264.467 376.936,264.393 376.700,264.393 376.515 C 264.393 375.913,263.580 374.306,263.348 374.450 C 263.209 374.535,263.185 374.492,263.283 374.335 C 263.368 374.197,263.343 373.890,263.229 373.652 C 261.258 369.576,257.981 363.001,257.265 361.685 C 254.580 356.756,250.390 349.608,249.422 348.308 C 249.161 347.957,248.947 347.629,248.947 347.579 C 248.947 347.347,242.760 338.395,242.337 338.014 C 242.276 337.959,241.822 337.372,241.329 336.710 C 240.836 336.048,240.205 335.230,239.926 334.891 C 239.647 334.553,239.057 333.834,238.616 333.294 C 233.052 326.489,226.156 319.799,220.082 315.313 C 215.367 311.830,207.954 307.602,204.865 306.634 C 204.616 306.556,204.413 306.393,204.413 306.272 C 204.413 306.151,204.363 306.102,204.302 306.163 C 204.241 306.224,203.216 305.932,202.025 305.515 C 198.836 304.396,196.632 303.822,191.976 302.896 C 189.077 302.319,179.019 301.958,175.104 302.289 C 168.017 302.889,167.849 302.907,163.390 303.512 C 161.968 303.705,156.969 304.673,155.065 305.123 C 153.117 305.584,152.429 305.772,150.953 306.247 C 146.179 307.783,142.955 309.313,139.857 311.514 C 138.325 312.602,138.295 312.784,139.726 312.301 C 140.336 312.095,141.487 311.796,142.283 311.636 C 143.080 311.476,144.363 311.214,145.135 311.054 C 146.499 310.771,149.118 310.364,152.315 309.938 C 161.782 308.675,173.206 311.095,179.748 315.747 C 183.316 318.285,190.095 324.835,187.563 323.298 C 182.098 319.982,174.555 319.226,167.803 321.317 C 167.472 321.419,167.066 321.460,166.901 321.408 C 165.958 321.112,167.202 321.770,168.305 322.150 C 171.279 323.176,177.631 325.549,178.837 326.085 C 179.168 326.232,180.431 326.755,181.645 327.248 C 188.698 330.110,195.040 333.454,199.798 336.817 C 203.782 339.632,207.456 343.611,209.054 346.839 C 209.726 348.198,209.782 348.159,208.000 347.568 C 206.192 346.968,205.380 346.735,203.310 346.222 C 202.427 346.004,201.389 345.743,201.003 345.643 C 198.991 345.123,198.668 345.060,194.684 344.422 C 184.127 342.730,173.231 343.226,165.582 345.746 C 161.863 346.971,157.247 349.204,156.169 350.300 C 155.948 350.524,155.873 350.648,156.003 350.577 C 156.133 350.505,156.449 350.528,156.705 350.629 C 156.962 350.729,157.578 350.919,158.074 351.050 C 159.843 351.520,165.815 353.523,166.838 353.989 C 167.410 354.250,167.931 354.463,167.995 354.463 C 168.099 354.463,171.645 356.205,173.521 357.178 C 174.419 357.643,178.645 360.409,179.304 360.963 C 182.264 363.449,183.822 365.008,186.325 367.989 C 187.016 368.811,188.766 371.454,188.766 371.674 C 188.766 372.905,179.702 378.688,173.621 381.337 C 173.069 381.578,172.347 381.895,172.016 382.043 C 170.662 382.648,164.427 384.961,162.086 385.726 C 158.238 386.984,153.651 388.380,152.156 388.747 C 151.715 388.855,151.038 389.032,150.652 389.140 C 145.950 390.450,142.478 391.052,136.610 391.574 C 135.341 391.687,133.355 391.869,132.197 391.978 C 129.499 392.233,118.888 392.236,116.484 391.983 C 115.472 391.876,113.696 391.692,112.538 391.572 C 111.379 391.453,109.935 391.274,109.328 391.175 C 108.721 391.075,107.638 390.898,106.921 390.780 C 105.483 390.545,101.291 389.627,100.502 389.374 C 100.226 389.286,99.594 389.103,99.097 388.966 C 92.970 387.286,86.528 384.311,80.843 380.537 C 80.125 380.061,79.493 379.618,79.438 379.554 C 79.383 379.489,78.796 379.037,78.134 378.548 C 68.344 371.328,60.501 358.982,57.290 345.737 C 56.669 343.176,56.564 342.687,56.360 341.424 C 56.244 340.707,56.060 339.579,55.952 338.917 C 54.441 329.689,55.194 315.937,57.771 305.717 C 57.869 305.331,58.096 304.428,58.277 303.711 C 58.458 302.994,58.690 302.136,58.793 301.805 C 58.895 301.474,59.212 300.436,59.496 299.498 C 59.975 297.921,60.791 295.534,61.178 294.584 C 61.268 294.363,61.501 293.731,61.695 293.180 C 61.889 292.628,62.265 291.680,62.530 291.073 C 62.795 290.466,63.090 289.789,63.186 289.569 C 64.683 286.109,69.687 276.593,70.199 276.229 C 70.277 276.174,70.402 275.993,70.477 275.827 C 70.930 274.827,74.932 269.160,76.630 267.113 C 80.098 262.933,81.812 261.050,84.676 258.271 C 86.043 256.946,87.748 255.375,88.465 254.781 C 89.183 254.186,89.905 253.553,90.070 253.374 C 90.394 253.023,92.010 251.766,93.183 250.953 C 93.580 250.677,94.013 250.355,94.144 250.237 C 94.542 249.881,95.533 249.265,95.767 249.228 C 95.889 249.208,97.571 248.425,99.505 247.488 C 101.440 246.550,103.922 245.402,105.022 244.936 C 106.121 244.470,107.382 243.930,107.823 243.736 C 108.265 243.542,109.890 242.909,111.434 242.331 C 112.979 241.752,114.423 241.207,114.644 241.120 C 115.954 240.603,117.504 240.079,119.358 239.527 C 120.517 239.181,121.961 238.730,122.568 238.524 C 123.175 238.318,123.987 238.089,124.373 238.015 C 124.759 237.941,125.662 237.717,126.379 237.519 C 127.096 237.320,128.360 237.009,129.188 236.827 C 130.015 236.645,131.053 236.411,131.494 236.308 C 134.276 235.659,138.174 235.051,143.129 234.493 C 153.796 233.291,166.391 234.229,176.530 236.979 C 180.156 237.963,184.447 239.431,186.861 240.513 C 187.412 240.760,188.044 241.036,188.265 241.125 C 189.210 241.508,193.544 243.646,194.569 244.235 C 195.184 244.588,196.355 245.261,197.172 245.730 C 197.989 246.198,198.757 246.666,198.878 246.769 C 198.998 246.872,199.819 247.431,200.702 248.012 C 207.325 252.371,213.997 258.676,218.730 265.048 C 220.283 267.139,222.066 269.801,222.066 270.027 C 222.066 270.128,222.156 270.211,222.267 270.211 C 222.377 270.211,222.467 270.303,222.467 270.415 C 222.467 270.528,222.679 270.957,222.937 271.368 C 224.003 273.067,226.190 277.567,226.981 279.689 C 227.322 280.603,227.479 280.779,227.733 280.526 C 227.980 280.278,226.161 275.640,224.670 272.718 C 220.272 264.097,214.115 256.591,205.803 249.717 C 202.965 247.369,198.860 244.569,195.486 242.678 C 193.631 241.638,189.880 239.730,188.566 239.159 C 188.069 238.942,187.212 238.568,186.660 238.326 C 184.994 237.597,181.156 236.200,179.238 235.625 C 178.245 235.328,177.026 234.962,176.530 234.814 C 176.033 234.665,175.327 234.481,174.961 234.404 C 173.758 234.153,174.452 234.055,178.678 233.880 C 183.794 233.669,189.559 233.146,193.781 232.511 C 194.498 232.403,195.717 232.221,196.489 232.107 C 199.669 231.638,206.924 230.145,211.635 228.990 C 222.051 226.436,229.183 229.968,232.410 239.281 C 232.992 240.958,233.035 240.506,232.484 238.512 C 231.596 235.296,230.848 233.328,229.550 230.792 C 227.354 226.503,228.032 224.632,233.047 221.135 C 237.764 217.846,240.554 213.926,241.199 209.679 C 241.397 208.377,241.218 208.661,240.827 210.270 C 240.634 211.064,240.411 211.854,240.331 212.025 C 238.012 217.022,235.498 219.680,230.829 222.069 C 227.535 223.753,227.000 224.916,228.114 227.965 L 228.481 228.969 227.424 227.925 C 226.842 227.350,226.293 226.881,226.203 226.881 C 226.113 226.881,225.787 226.700,225.477 226.480 C 224.588 225.847,222.204 225.559,220.141 225.835 C 218.037 226.116,212.845 227.674,211.936 228.296 C 211.825 228.372,211.284 228.537,210.732 228.664 C 210.181 228.790,208.917 229.081,207.924 229.309 C 206.931 229.538,205.396 229.861,204.514 230.027 C 203.631 230.194,202.503 230.411,202.006 230.510 C 201.137 230.683,198.608 231.105,196.088 231.496 C 194.819 231.693,190.833 232.184,187.964 232.496 C 182.223 233.122,168.308 233.272,166.199 232.732 C 165.219 232.481,162.234 232.136,158.877 231.886 C 157.497 231.783,155.963 231.617,155.466 231.516 C 154.970 231.415,153.842 231.191,152.959 231.017 C 152.076 230.843,151.038 230.614,150.652 230.509 C 150.266 230.403,149.408 230.172,148.746 229.994 C 146.292 229.336,144.539 228.794,142.669 228.114 C 137.943 226.398,131.233 221.124,127.639 216.300 C 127.001 215.445,126.407 214.654,126.320 214.544 C 125.277 213.235,123.288 209.605,122.298 207.205 C 114.297 187.802,122.477 166.015,141.989 154.755 L 143.658 153.792 145.801 154.656 C 146.979 155.131,148.874 155.959,150.012 156.496 C 151.149 157.033,152.113 157.472,152.153 157.472 C 152.439 157.472,165.362 163.858,169.935 166.259 C 175.783 169.329,178.745 170.917,182.748 173.130 C 186.479 175.191,186.882 175.386,188.766 176.032 C 194.875 178.125,203.804 176.990,210.402 173.279 C 211.520 172.651,213.587 171.624,215.145 170.922 C 215.918 170.574,216.730 170.207,216.951 170.105 C 219.003 169.162,223.209 167.768,225.069 167.415 C 226.869 167.074,227.305 166.901,226.365 166.901 C 224.744 166.901,218.910 168.390,216.903 169.317 C 216.435 169.533,215.993 169.709,215.920 169.709 C 215.782 169.709,214.942 170.096,211.535 171.729 C 207.905 173.468,205.530 174.389,203.109 174.996 C 202.447 175.162,201.454 175.417,200.903 175.563 C 200.228 175.741,198.619 175.824,195.988 175.817 C 192.020 175.806,191.996 175.802,188.617 174.855 C 186.243 174.190,180.962 171.293,175.226 167.510 C 172.681 165.832,172.623 165.794,167.358 162.465 C 162.108 159.146,155.715 155.652,151.653 153.883 C 151.047 153.619,150.183 153.240,149.733 153.041 C 149.283 152.842,148.425 152.490,147.827 152.258 C 147.229 152.027,146.469 151.713,146.138 151.561 C 144.413 150.770,135.862 147.844,135.276 147.844 C 134.984 147.844,134.961 147.547,135.057 145.085 C 135.497 133.871,142.523 122.218,151.377 118.018 C 152.810 117.338,152.749 117.376,152.617 117.244 C 152.558 117.185,152.294 117.224,152.032 117.331 C 151.769 117.438,150.517 117.909,149.248 118.376 C 146.532 119.377,144.380 120.337,143.244 121.054 C 142.795 121.338,142.428 121.501,142.428 121.417 C 142.430 121.077,144.104 118.826,145.831 116.839 C 147.114 115.363,147.502 114.877,149.337 112.437 C 150.336 111.108,151.466 109.527,151.849 108.922 C 152.232 108.318,152.602 107.778,152.672 107.723 C 152.741 107.668,153.095 107.081,153.457 106.419 C 153.819 105.757,154.194 105.116,154.290 104.993 C 154.628 104.565,156.673 100.303,157.188 98.955 C 159.970 91.675,160.819 86.213,160.597 77.031 C 160.395 68.648,159.754 63.426,158.356 58.776 C 158.075 57.839,157.770 56.891,157.678 56.670 C 156.805 54.553,156.092 50.953,156.546 50.953 C 157.220 50.953,165.403 55.613,167.036 56.927 C 172.032 60.946,176.035 65.603,178.462 70.217 C 178.778 70.819,179.083 71.356,179.138 71.413 C 179.270 71.545,180.574 74.207,181.204 75.627 C 182.419 78.368,183.898 82.256,184.675 84.754 C 185.402 87.090,185.230 86.969,187.405 86.676 C 204.367 84.390,219.079 88.324,225.976 96.991 C 227.180 98.505,227.169 98.495,226.996 97.894 C 225.531 92.792,225.101 89.949,224.946 84.353 C 224.572 70.808,227.672 59.799,233.378 54.401 C 234.405 53.431,236.506 51.956,236.863 51.956 C 236.957 51.956,237.210 51.816,237.424 51.646 C 237.869 51.292,236.090 51.366,234.303 51.776 C 231.512 52.417,230.540 52.698,229.188 53.253 C 228.857 53.389,228.270 53.623,227.884 53.773 C 223.839 55.345,218.033 60.182,214.537 64.895 C 212.179 68.074,207.623 75.992,207.623 76.912 C 207.623 76.971,207.390 77.541,207.106 78.179 C 206.280 80.033,206.110 80.455,205.542 82.046 C 204.773 84.204,204.937 84.083,203.098 83.850 C 198.753 83.299,192.055 83.433,188.064 84.151 C 187.182 84.309,186.359 84.443,186.236 84.446 C 186.113 84.450,185.857 84.025,185.667 83.501 C 184.699 80.831,183.851 78.628,183.424 77.677 C 183.163 77.095,182.949 76.569,182.949 76.509 C 182.949 75.650,177.521 66.033,176.012 64.219 C 175.862 64.039,175.278 63.305,174.713 62.588 C 170.927 57.783,165.429 53.569,159.779 51.144 C 159.559 51.049,158.767 50.701,158.020 50.371 L 156.662 49.771 156.171 50.512 M171.414 110.990 C 165.987 112.934,161.596 114.839,161.796 115.162 C 161.849 115.249,162.410 115.424,163.043 115.553 C 168.908 116.746,177.746 119.882,180.806 121.857 C 183.959 123.892,184.232 124.955,184.767 137.312 C 184.881 139.960,185.094 143.932,185.239 146.138 L 185.502 150.150 185.427 141.625 C 185.291 126.196,185.190 124.796,184.095 123.205 C 181.662 119.673,178.484 116.012,174.703 112.387 C 172.895 110.654,172.647 110.549,171.414 110.990 M215.787 112.989 C 214.538 114.230,213.207 115.606,212.828 116.047 C 211.661 117.403,210.371 119.001,209.428 120.261 C 208.932 120.923,208.481 121.510,208.426 121.565 C 208.219 121.770,207.479 122.886,207.227 123.370 L 206.967 123.872 207.458 123.420 C 207.728 123.172,208.027 122.969,208.122 122.969 C 208.216 122.969,208.436 122.845,208.610 122.693 C 208.983 122.369,210.914 121.362,212.337 120.750 C 212.889 120.513,213.611 120.199,213.942 120.054 C 217.103 118.660,219.084 117.957,222.668 116.954 C 226.866 115.780,226.871 115.778,228.131 115.538 C 229.730 115.233,229.698 115.130,227.722 114.198 C 224.601 112.727,223.366 112.225,220.618 111.313 C 218.175 110.502,218.348 110.442,215.787 112.989 M192.593 152.379 C 186.517 153.481,184.778 154.945,187.052 157.041 C 187.801 157.732,192.942 160.481,193.484 160.481 C 193.565 160.481,194.161 160.751,194.809 161.080 C 195.979 161.674,195.992 161.676,196.640 161.319 C 196.998 161.122,197.608 160.839,197.994 160.691 C 205.769 157.711,208.056 154.473,203.240 153.268 C 202.782 153.153,202.024 152.963,201.555 152.846 C 198.339 152.041,195.323 151.884,192.593 152.379 M261.234 251.053 C 261.236 251.494,261.277 251.651,261.325 251.402 C 261.373 251.152,261.372 250.791,261.321 250.599 C 261.271 250.408,261.232 250.612,261.234 251.053 M289.155 254.213 L 288.566 254.865 289.218 254.275 C 289.825 253.726,289.962 253.561,289.807 253.561 C 289.772 253.561,289.479 253.854,289.155 254.213 M274.084 260.281 C 274.085 260.943,274.123 261.189,274.167 260.829 C 274.212 260.468,274.211 259.927,274.165 259.625 C 274.120 259.324,274.083 259.619,274.084 260.281 M274.576 263.131 C 274.826 263.179,275.187 263.177,275.378 263.127 C 275.570 263.077,275.366 263.037,274.925 263.040 C 274.483 263.042,274.327 263.083,274.576 263.131 M218.255 287.161 C 217.767 287.658,217.414 288.064,217.469 288.064 C 217.524 288.064,217.968 287.658,218.455 287.161 C 218.943 286.665,219.296 286.259,219.241 286.259 C 219.186 286.259,218.742 286.665,218.255 287.161 M284.804 286.601 C 285.053 286.649,285.459 286.649,285.707 286.601 C 285.955 286.553,285.752 286.514,285.256 286.514 C 284.759 286.514,284.556 286.553,284.804 286.601 M214.232 291.224 L 213.541 291.976 214.293 291.285 C 214.707 290.904,215.045 290.566,215.045 290.532 C 215.045 290.379,214.875 290.523,214.232 291.224 M314.095 386.902 C 314.344 386.950,314.705 386.948,314.897 386.898 C 315.089 386.848,314.885 386.809,314.443 386.811 C 314.002 386.813,313.845 386.854,314.095 386.902 M232.096 397.492 C 232.696 398.099,233.231 398.596,233.286 398.596 C 233.341 398.596,232.896 398.099,232.297 397.492 C 231.698 396.886,231.162 396.389,231.107 396.389 C 231.052 396.389,231.497 396.886,232.096 397.492 M234.203 399.599 C 234.634 400.040,235.031 400.401,235.086 400.401 C 235.142 400.401,234.834 400.040,234.403 399.599 C 233.972 399.157,233.575 398.796,233.519 398.796 C 233.464 398.796,233.772 399.157,234.203 399.599 M273.306 406.349 C 273.593 406.863,273.787 407.323,273.738 407.372 C 273.688 407.422,273.415 407.002,273.129 406.439 C 272.481 405.159,272.605 405.096,273.306 406.349 " stroke="none" fill="#fc7c24" fill-rule="evenodd"></path><path id="path1" d="M260.761 249.872 C 259.775 250.922,260.471 255.228,261.770 256.118 C 263.957 257.616,267.003 261.853,268.586 265.597 C 268.842 266.204,269.222 267.079,269.431 267.542 C 269.639 268.005,269.809 268.480,269.809 268.598 C 269.809 268.715,269.898 268.969,270.007 269.160 C 270.383 269.826,271.679 273.939,272.518 277.131 C 272.779 278.124,273.125 279.433,273.286 280.040 C 273.448 280.647,273.689 281.685,273.822 282.347 C 274.423 285.351,276.250 286.855,279.301 286.859 C 281.351 286.861,288.231 286.326,289.769 286.044 C 294.623 285.156,297.707 284.141,299.993 282.682 C 301.292 281.852,302.909 280.435,302.909 280.125 C 302.909 279.968,302.988 279.840,303.086 279.840 C 303.353 279.840,303.499 278.790,303.288 278.394 C 302.962 277.786,301.694 277.544,300.262 277.818 C 298.926 278.073,294.468 279.107,293.280 279.438 C 290.196 280.297,287.944 281.109,286.760 281.788 C 284.011 283.364,279.975 285.055,278.963 285.055 C 278.873 285.055,278.851 284.963,278.237 282.046 C 276.582 274.185,276.070 272.138,274.680 267.822 C 274.274 266.564,273.910 265.633,273.870 265.753 C 273.830 265.874,273.929 266.361,274.090 266.838 C 274.378 267.687,275.192 270.745,275.761 273.119 C 275.920 273.781,276.138 274.684,276.246 275.125 C 277.335 279.579,277.030 281.708,275.627 279.438 C 275.354 278.997,275.062 278.636,274.978 278.636 C 274.893 278.636,274.843 278.568,274.866 278.485 C 274.976 278.084,272.015 269.601,270.807 266.858 C 269.138 263.066,267.714 260.657,265.988 258.705 C 265.486 258.138,264.605 257.086,264.030 256.369 C 263.455 255.652,262.908 254.970,262.814 254.853 C 261.767 253.550,261.045 251.363,261.320 250.331 C 261.581 249.355,261.392 249.201,260.761 249.872 M294.086 250.766 C 293.370 251.104,292.739 251.443,292.681 251.519 C 292.624 251.594,292.183 251.924,291.702 252.251 C 291.220 252.578,290.309 253.300,289.678 253.855 C 287.951 255.375,287.703 255.572,285.858 256.893 C 280.764 260.538,277.361 261.902,276.034 260.828 C 275.643 260.511,275.621 260.406,275.834 259.875 C 276.545 258.103,277.019 257.356,278.146 256.225 C 278.829 255.539,279.203 255.077,278.976 255.198 C 278.420 255.496,275.627 258.302,275.627 258.564 C 275.627 258.820,274.994 259.579,274.780 259.579 C 274.475 259.579,274.630 257.993,275.025 257.071 C 275.493 255.979,275.535 255.720,275.154 256.274 C 274.506 257.218,274.189 258.758,274.246 260.698 L 274.302 262.618 273.690 262.915 C 273.201 263.151,273.097 263.309,273.172 263.699 C 273.268 264.201,273.621 264.191,273.621 263.686 C 273.621 263.271,274.280 262.989,275.263 262.986 C 277.643 262.976,281.617 261.250,284.353 259.036 C 285.760 257.898,286.806 257.015,287.755 256.165 C 290.704 253.524,293.582 251.331,294.953 250.681 C 295.649 250.350,295.869 250.150,295.537 250.151 C 295.454 250.151,294.801 250.428,294.086 250.766 M241.926 276.453 C 234.224 277.489,226.077 280.567,222.004 283.981 C 218.414 286.989,215.359 289.996,212.192 293.638 C 211.892 293.984,211.058 295.060,210.338 296.030 C 209.617 297.000,208.953 297.886,208.861 297.999 C 208.019 299.036,204.413 305.760,204.413 306.294 C 204.413 306.403,204.616 306.556,204.865 306.634 C 207.954 307.602,215.367 311.830,220.082 315.313 C 226.156 319.799,233.052 326.489,238.616 333.294 C 239.057 333.834,239.647 334.553,239.926 334.891 C 240.205 335.230,240.836 336.048,241.329 336.710 C 241.822 337.372,242.276 337.959,242.337 338.014 C 242.760 338.395,248.947 347.347,248.947 347.579 C 248.947 347.629,249.161 347.957,249.422 348.308 C 250.002 349.087,253.677 355.219,255.216 357.974 C 257.463 361.997,258.238 363.480,260.563 368.205 C 263.806 374.795,264.393 376.065,264.393 376.487 C 264.393 376.687,264.467 376.936,264.558 377.041 C 265.295 377.896,267.234 384.614,268.001 388.967 C 268.424 391.374,269.545 396.316,269.740 396.637 C 269.789 396.718,270.299 396.411,270.872 395.955 C 274.321 393.216,277.628 393.502,281.048 396.833 C 282.510 398.258,284.253 400.249,284.253 400.496 C 284.253 400.944,286.745 402.668,289.013 403.789 C 295.819 407.154,304.669 406.876,312.036 403.068 C 313.471 402.326,316.134 400.563,316.087 400.386 C 316.066 400.303,316.955 399.302,318.063 398.162 C 321.290 394.840,324.058 391.423,326.485 387.763 C 327.034 386.936,327.530 386.214,327.587 386.158 C 327.754 385.999,328.442 384.917,328.843 384.182 C 329.045 383.812,329.385 383.322,329.598 383.093 C 330.399 382.234,329.806 382.577,328.865 383.518 C 326.080 386.302,318.422 387.907,313.300 386.782 C 312.825 386.678,311.896 386.485,311.234 386.354 C 310.572 386.222,309.353 385.939,308.526 385.724 C 307.698 385.509,306.822 385.302,306.578 385.263 C 305.444 385.083,298.475 380.788,294.082 377.561 C 293.144 376.872,292.163 376.155,291.902 375.968 C 291.164 375.437,288.088 372.987,286.691 371.815 C 281.791 367.706,274.560 359.912,271.414 355.349 C 270.719 354.341,269.506 352.533,269.314 352.220 C 265.276 345.632,262.414 339.335,261.079 334.102 C 260.938 333.551,260.691 332.603,260.529 331.996 C 260.267 331.010,259.965 329.429,259.380 325.978 C 258.699 321.959,258.791 313.006,259.563 308.225 C 260.753 300.852,263.100 293.414,266.185 287.231 L 266.752 286.097 265.823 285.855 C 263.801 285.327,259.043 284.046,258.475 283.877 C 251.299 281.730,248.969 280.909,245.908 279.449 C 242.000 277.585,242.201 276.493,246.472 276.379 L 248.847 276.315 246.038 276.297 C 244.493 276.286,242.643 276.357,241.926 276.453 M202.520 339.418 C 202.587 339.804,202.719 340.346,202.813 340.622 C 202.907 340.898,203.080 341.575,203.198 342.126 C 203.793 344.903,204.346 346.312,204.940 346.565 C 205.693 346.887,209.477 348.064,209.537 347.996 C 209.563 347.967,209.391 347.530,209.155 347.024 C 207.845 344.215,202.237 337.787,202.520 339.418 M228.987 376.733 C 226.446 377.011,224.125 377.445,222.066 378.030 C 221.018 378.328,219.912 378.618,219.609 378.676 C 219.305 378.734,219.057 378.813,219.057 378.852 C 219.057 378.955,220.049 380.723,220.594 381.591 C 220.852 382.002,221.063 382.431,221.063 382.544 C 221.063 382.656,221.132 382.748,221.216 382.748 C 221.369 382.748,221.732 383.343,221.981 384.002 C 222.053 384.195,222.193 384.353,222.290 384.353 C 222.388 384.353,222.467 384.440,222.467 384.546 C 222.467 384.816,227.171 391.707,227.676 392.177 C 227.735 392.232,228.364 392.999,229.075 393.882 C 229.785 394.764,231.383 396.525,232.627 397.793 C 233.871 399.062,234.909 400.191,234.933 400.301 C 234.996 400.580,236.380 401.604,237.813 402.431 C 246.480 407.435,257.251 407.354,264.755 402.229 C 266.069 401.332,266.800 400.718,266.800 400.512 C 266.800 400.433,267.116 399.983,267.503 399.512 C 267.889 399.040,268.205 398.584,268.205 398.498 C 268.205 398.352,265.559 394.555,265.104 394.050 C 264.989 393.921,264.443 393.244,263.892 392.545 C 261.631 389.680,257.587 385.849,254.162 383.328 C 253.412 382.776,249.424 380.341,249.269 380.341 C 249.218 380.341,248.491 380.024,247.652 379.637 C 242.398 377.210,235.065 376.069,228.987 376.733 " stroke="none" fill="#ec1c24" fill-rule="evenodd"></path></g></svg>