<?xml version="1.0" encoding="UTF-8" standalone="no"?>
<svg
   id="svg"
   version="1.1"
   width="400"
   height="400"
   viewBox="0, 0, 400,400"
   sodipodi:docname="image2vector (1).svg"
   inkscape:version="1.1 (c68e22c387, 2021-05-23)"
   xmlns:inkscape="http://www.inkscape.org/namespaces/inkscape"
   xmlns:sodipodi="http://sodipodi.sourceforge.net/DTD/sodipodi-0.dtd"
   xmlns="http://www.w3.org/2000/svg"
   xmlns:svg="http://www.w3.org/2000/svg">
  <defs
     id="defs23223" />
  <sodipodi:namedview
     id="namedview23221"
     pagecolor="#ffffff"
     bordercolor="#666666"
     borderopacity="1.0"
     inkscape:pageshadow="2"
     inkscape:pageopacity="0.0"
     inkscape:pagecheckerboard="0"
     showgrid="false"
     inkscape:zoom="2.06"
     inkscape:cx="271.1165"
     inkscape:cy="198.30097"
     inkscape:window-width="1920"
     inkscape:window-height="1009"
     inkscape:window-x="-8"
     inkscape:window-y="-8"
     inkscape:window-maximized="1"
     inkscape:current-layer="svg" />
  <g
     id="svgg">
    <path
       id="path0"
       d="m 192.667,57.179 c -4.311,0.248 -10.02,0.864 -13.75,1.482 -1.1,0.183 -2.27,0.334 -2.599,0.336 -1.367,0.007 -9.936,1.959 -14.401,3.279 -4.562,1.349 -6.52,2.005 -12.5,4.185 -4.494,1.639 -14.121,6.208 -18.917,8.979 -19.348,11.176 -34.888,25.614 -47.424,44.06 -0.903,1.329 -1.689,2.454 -1.747,2.5 -0.057,0.046 -0.248,0.346 -0.425,0.667 -0.176,0.32 -0.364,0.62 -0.418,0.666 -0.054,0.046 -0.574,0.909 -1.156,1.917 -0.582,1.008 -1.43,2.471 -1.883,3.25 -1.256,2.157 -4.612,8.555 -4.613,8.795 0,0.116 -0.337,0.881 -0.748,1.699 -0.892,1.777 -2.51,5.522 -3.53,8.173 -0.405,1.054 -0.838,2.141 -0.962,2.416 -0.313,0.696 -1.445,4.109 -2.155,6.5 -1.319,4.435 -1.506,5.097 -2.124,7.5 -1.891,7.351 -2.993,13.627 -3.919,22.334 -0.416,3.918 -0.517,18.988 -0.157,23.451 0.815,10.076 2.871,20.98 5.604,29.715 0.287,0.917 0.673,2.192 0.858,2.834 1.305,4.522 4.604,12.668 7.999,19.75 1.447,3.016 6.427,11.619 8.685,15 1.033,1.547 3.292,4.796 3.65,5.25 0.072,0.091 0.662,0.898 1.311,1.791 0.649,0.894 1.249,1.625 1.334,1.625 0.084,0 0.153,0.107 0.153,0.236 0,0.13 0.061,0.262 0.134,0.292 0.074,0.031 0.724,0.768 1.444,1.639 11.275,13.624 26.016,26.372 38.145,32.989 0.474,0.258 2.098,1.169 3.611,2.023 4.873,2.753 7.318,3.95 12.416,6.082 1.467,0.613 3.058,1.291 3.535,1.505 2.094,0.941 11.152,4.072 12.883,4.454 0.595,0.131 2.845,0.693 4.999,1.248 22.666,5.842 46.431,5.789 69.5,-0.156 2.154,-0.556 4.367,-1.11 4.917,-1.232 1.57,-0.349 9.949,-3.24 11.833,-4.083 0.367,-0.164 2.279,-0.974 4.25,-1.799 3.073,-1.287 8.2,-3.681 9,-4.201 0.219,-0.143 4.517,-2.52 6.944,-3.842 1.864,-1.015 5.319,-3.245 9.861,-6.365 l 1.555,-1.068 2.195,1.074 c 5.383,2.633 9.919,4.154 14.991,5.027 23.407,4.031 47.099,-8.9 56.209,-30.675 0.245,-0.586 0.616,-1.44 0.824,-1.899 1.39,-3.06 2.861,-9.329 3.267,-13.918 0.858,-9.705 -0.965,-18.943 -5.593,-28.338 -1.153,-2.342 -3.114,-5.622 -3.581,-5.993 -0.058,-0.046 -0.527,-0.648 -1.043,-1.338 -2.418,-3.239 -5.244,-6.204 -8.379,-8.79 -0.825,-0.681 -1.827,-1.512 -2.228,-1.846 -0.4,-0.335 -0.795,-0.652 -0.878,-0.705 -0.088,-0.055 -0.042,-0.617 0.108,-1.332 2.679,-12.735 2.928,-33.485 0.577,-48.1 -1.089,-6.768 -3.392,-16.16 -5.405,-22.043 -0.233,-0.68 -0.424,-1.343 -0.424,-1.471 0,-0.129 -0.18,-0.697 -0.4,-1.263 -0.22,-0.566 -0.644,-1.666 -0.941,-2.445 -1.25,-3.277 -2.874,-7.101 -4.072,-9.59 -0.705,-1.463 -1.471,-3.11 -1.703,-3.66 -0.741,-1.756 -3.511,-6.803 -5.332,-9.715 -0.762,-1.218 -1.385,-2.259 -1.385,-2.313 0,-0.178 -3.745,-5.743 -5.584,-8.298 -10.4,-14.451 -24.561,-27.663 -39.5,-36.852 -1.466,-0.902 -2.704,-1.688 -2.75,-1.746 -1.02,-1.298 -16.861,-8.845 -23.294,-11.097 -6.14,-2.151 -7.618,-2.623 -12.778,-4.086 -5.14,-1.458 -11.693,-2.674 -19.625,-3.642 -7.187,-0.878 -17.498,-1.224 -24.469,-0.822 m 14.25,6.656 c 8.013,0.422 17.109,1.608 23.166,3.021 5.138,1.199 11.551,3.083 15.655,4.598 1.107,0.409 2.162,0.783 2.345,0.831 1.278,0.336 10.011,4.102 11.5,4.959 0.367,0.211 1.809,0.957 3.205,1.657 4.621,2.318 15.339,8.848 16.045,9.776 0.046,0.06 0.871,0.697 1.834,1.415 10.873,8.117 20.175,17.387 27.92,27.825 1.088,1.466 2.038,2.691 2.112,2.722 0.074,0.03 0.134,0.13 0.134,0.22 0,0.091 0.119,0.283 0.263,0.428 0.913,0.913 5.586,8.504 8.186,13.296 3.177,5.859 7.753,16.25 8.699,19.755 0.185,0.685 0.493,1.695 0.684,2.245 6.381,18.343 8.358,42.556 5.146,63.038 l -0.365,2.33 -1.765,-0.833 c -3.565,-1.684 -7.454,-3.037 -10.181,-3.541 -6.125,-1.132 -6.101,-1.129 -11.583,-1.145 -13.741,-0.04 -24.867,4.16 -34.977,13.202 -7.478,6.689 -13.913,17.531 -15.753,26.539 -3.396,16.633 0.548,33.242 10.668,44.929 2.409,2.781 4.167,4.657 4.749,5.066 0.194,0.137 1.039,0.828 1.876,1.537 l 1.523,1.287 -2.46,1.638 c -2.849,1.896 -4.819,3.119 -7.043,4.372 -0.871,0.491 -1.621,0.941 -1.667,1.001 -0.308,0.402 -7.386,4 -10.351,5.261 -1.213,0.516 -2.813,1.22 -3.554,1.564 -3.256,1.511 -12.254,4.676 -15.678,5.514 -0.825,0.202 -2.757,0.692 -4.294,1.09 -20.593,5.325 -44.766,5.344 -64.873,0.051 -1.008,-0.266 -2.883,-0.753 -4.166,-1.083 -2.838,-0.729 -5.739,-1.607 -7.417,-2.243 -5.465,-2.073 -8.137,-3.136 -9.476,-3.77 -0.858,-0.406 -2.112,-0.957 -2.786,-1.225 -2.001,-0.795 -9.862,-4.824 -10.571,-5.418 -0.279,-0.234 -1.283,-0.827 -2.667,-1.577 -1.947,-1.055 -9.05,-5.841 -12.083,-8.143 -13.112,-9.948 -25.527,-23.708 -33.558,-37.191 -0.573,-0.962 -1.132,-1.9 -1.242,-2.083 -0.11,-0.183 -0.246,-0.371 -0.302,-0.417 -0.292,-0.24 -3.417,-6.167 -4.701,-8.916 -0.813,-1.742 -1.772,-3.789 -2.131,-4.549 -3.325,-7.036 -6.946,-18.524 -8.889,-28.201 -4.387,-21.849 -3.193,-44.463 3.47,-65.704 0.423,-1.349 0.769,-2.563 0.769,-2.697 0,-1.172 6.629,-16.971 8.293,-19.766 0.191,-0.321 0.907,-1.596 1.591,-2.833 2.69,-4.869 6.892,-11.599 8.118,-13 0.201,-0.229 0.991,-1.279 1.757,-2.334 14.799,-20.38 38.875,-38.481 61.741,-46.421 14.989,-5.205 25.461,-7.316 40.334,-8.133 2.321,-0.128 9.892,-0.094 12.75,0.056 M 197,68.106 c -11.679,0.353 -24.611,2.512 -35.68,5.957 -4.382,1.363 -10.778,3.849 -16.237,6.31 -4.754,2.143 -14.517,7.766 -18.012,10.373 -0.74,0.552 -1.892,1.379 -2.56,1.837 -9.866,6.765 -21.348,18.108 -29.357,29 -0.404,0.55 -0.902,1.225 -1.107,1.5 -0.204,0.275 -0.448,0.65 -0.541,0.834 -0.094,0.183 -0.548,0.858 -1.011,1.5 -0.462,0.641 -1.202,1.691 -1.644,2.333 -3.221,4.678 -9.682,17.046 -11.257,21.547 -0.216,0.616 -0.96,2.601 -1.654,4.411 -5.184,13.513 -7.985,29.414 -7.977,45.292 0.005,8.863 0.599,14.866 2.534,25.583 1.084,6.007 3.224,13.414 5.925,20.5 0.523,1.375 1.06,2.8 1.192,3.167 0.133,0.367 0.415,1.042 0.627,1.5 0.213,0.458 0.627,1.386 0.921,2.061 0.957,2.201 2.761,5.901 3.748,7.689 0.531,0.962 1.25,2.283 1.598,2.934 2.73,5.116 9.999,15.77 13.178,19.316 0.165,0.183 1.034,1.195 1.932,2.249 0.897,1.053 2.121,2.403 2.72,3 0.598,0.596 2.023,2.086 3.166,3.311 1.144,1.225 2.492,2.563 2.996,2.974 0.504,0.412 1.592,1.4 2.417,2.196 9.308,8.983 24.278,18.432 38.666,24.405 10.63,4.414 23.729,7.509 37.584,8.882 7.634,0.756 21.892,0.38 29.256,-0.771 0.554,-0.087 1.726,-0.232 2.604,-0.324 7.245,-0.751 22.515,-5.159 31.056,-8.965 3.124,-1.392 8.196,-3.825 8.917,-4.278 0.229,-0.144 0.754,-0.41 1.167,-0.591 0.412,-0.181 1.05,-0.518 1.416,-0.749 0.367,-0.231 0.91,-0.546 1.207,-0.701 l 0.54,-0.281 -1.201,-0.305 c -1.434,-0.364 -5.165,-2.218 -7.102,-3.529 -0.764,-0.517 -1.417,-0.94 -1.45,-0.94 -0.117,0 -1.327,-0.855 -1.784,-1.261 -0.251,-0.223 -0.489,-0.405 -0.529,-0.405 -0.107,0 -4.937,-4.802 -5.616,-5.584 -11.694,-13.443 -15.271,-38.735 -10.307,-72.879 0.276,-1.9 0.565,-4.115 0.642,-4.924 0.179,-1.874 -0.189,-1.71 4.35,-1.933 29.293,-1.435 32.031,-2.379 38.607,-13.305 2.279,-3.787 2.407,-4.142 1.435,-3.983 -1.672,0.273 -6.982,0.475 -10.292,0.391 -10.819,-0.274 -16.605,-3.061 -19.625,-9.45 -1.458,-3.084 -2.153,-9.5 -1.812,-16.717 0.256,-5.412 0.268,-5.116 -0.199,-5.116 -0.323,0 -0.479,0.212 -0.947,1.291 -0.307,0.711 -0.777,1.742 -1.043,2.292 -0.667,1.38 -3.124,6.902 -3.124,7.022 0,0.144 -2.241,5.177 -3.275,7.355 -0.49,1.033 -0.891,1.954 -0.891,2.046 0,0.343 -1.115,-0.422 -2.173,-1.49 -3.077,-3.105 -4.036,-8.015 -3.432,-17.558 l 0.145,-2.292 h -0.506 c -0.498,0 -0.518,0.033 -1.124,1.875 -0.829,2.515 -1.689,4.646 -3.582,8.875 -0.575,1.284 -1.278,2.859 -1.564,3.5 -1.165,2.618 -6.006,10.276 -7.165,11.334 -0.101,0.091 -1.083,1.291 -2.183,2.666 -2.953,3.691 -6.154,7.289 -12.083,13.583 -10.168,10.794 -13.865,14.997 -18.032,20.501 -2.404,3.174 -6.301,8.676 -6.301,8.894 0,0.044 -0.364,0.666 -0.808,1.384 -1.991,3.218 -4.956,8.864 -6.159,11.726 -0.21,0.502 -0.452,1.038 -0.536,1.192 -1.429,2.621 -6.331,17.181 -6.331,18.805 0,0.155 -0.183,1.025 -0.407,1.932 -0.49,1.983 -1.926,9.406 -1.926,9.955 0,0.651 -0.166,0.629 -1.313,-0.178 -9.615,-6.764 -18.805,-16.104 -25.113,-25.522 -3.294,-4.92 -4.614,-7.253 -6.759,-11.952 -0.833,-1.826 -1.694,-3.707 -1.913,-4.18 -2.023,-4.374 -4.095,-12.278 -5.328,-20.32 -4.743,-30.942 11.737,-64.252 37.676,-76.151 0.917,-0.42 1.967,-0.903 2.333,-1.073 1.766,-0.816 2.487,-1.109 4.417,-1.795 5.712,-2.03 11.187,-3.211 17.266,-3.725 2.811,-0.238 20.134,-0.114 22.484,0.161 5.707,0.666 9.022,2.521 9.406,5.263 0.113,0.801 0.769,1.079 0.912,0.386 1.304,-6.287 -2.344,-13.92 -8.61,-18.017 -0.802,-0.525 -1.458,-0.996 -1.458,-1.046 0,-0.051 0.057,-0.057 0.127,-0.014 0.228,0.141 6.89,1.081 9.54,1.347 5.18,0.518 7.807,0.62 19.75,0.765 12.398,0.151 13.887,0.226 16.851,0.844 3.45,0.721 6.399,3.02 6.399,4.99 0,0.641 0.776,0.744 0.903,0.12 0.428,-2.117 -0.011,-6.937 -0.756,-8.291 -0.076,-0.138 -0.353,-0.738 -0.616,-1.334 -1.252,-2.838 -4.312,-6.291 -7.365,-8.31 -0.87,-0.576 -1.433,-1.007 -1.25,-0.958 1.117,0.301 7.436,1.145 11.417,1.525 3.444,0.328 7.179,0.449 17.833,0.577 17.526,0.21 19.377,0.498 22.444,3.496 0.884,0.863 1.556,1.254 1.556,0.903 0,-1.203 -9.177,-12.258 -15.075,-18.159 C 267.374,81.013 232.424,67.033 197,68.106 m 10.833,4.066 c 11.377,0.488 21.62,2.397 33.084,6.167 1.65,0.543 3.375,1.11 3.833,1.259 1.285,0.42 5.697,2.191 7,2.81 0.642,0.305 2.104,0.985 3.25,1.512 4.368,2.006 8.083,3.972 11.25,5.951 12.901,8.062 22.263,15.854 30.594,25.462 3.246,3.744 3.228,3.71 1.385,2.751 -2.608,-1.358 -5.753,-1.589 -15.896,-1.167 -14.776,0.615 -24.647,-0.076 -33.25,-2.327 -2.148,-0.563 -2.975,-0.666 -2.798,-0.349 0.776,1.387 3.472,3.954 8.307,7.912 3.686,3.017 6.055,5.588 6.679,7.251 0.101,0.269 0.069,0.298 -0.2,0.183 -2.094,-0.9 -0.944,-0.842 -15.404,-0.78 -12.664,0.055 -17.142,-0.039 -22.966,-0.48 -1.219,-0.093 -3.507,-0.239 -5.084,-0.326 -4.197,-0.23 -16.875,-1.752 -20.284,-2.435 -0.345,-0.069 -0.303,-0.005 0.24,0.369 0.98,0.676 3.221,1.537 4.455,1.712 2.045,0.29 6.275,1.992 8.055,3.242 3.703,2.6 6.526,5.783 7.902,8.91 0.855,1.944 0.875,2.18 0.14,1.729 -0.688,-0.423 -1.996,-0.759 -4.625,-1.189 -10.922,-1.784 -25.424,-1.362 -36.917,1.073 -1.008,0.213 -2.283,0.479 -2.833,0.59 -3.406,0.689 -10.595,3.562 -13.75,5.494 -1.689,1.035 -1.883,0.885 -1.354,-1.042 1.534,-5.592 6.097,-10.271 11.135,-11.42 l 1.263,-0.288 -1.514,-1.44 c -5.614,-5.342 -13.612,-7.009 -22.612,-4.711 -2.409,0.615 -2.521,0.521 -1.791,-1.506 3.387,-9.404 16.478,-17.772 31.456,-20.107 0.861,-0.134 3.298,-0.21 6.875,-0.213 3.048,-0.003 5.542,-0.056 5.542,-0.119 0,-0.062 -0.438,-0.778 -0.972,-1.59 -5.016,-7.616 -13.78,-10.937 -28.226,-10.698 -3.76,0.063 -4.031,-0.011 -3.209,-0.876 2.201,-2.318 8.613,-5.687 13.24,-6.957 5.062,-1.388 9.374,-2.255 13.808,-2.774 8.208,-0.961 17.718,0.103 24.756,2.77 0.448,0.17 0.87,0.308 0.939,0.308 0.171,0 -0.289,-2.363 -0.697,-3.583 -1.977,-5.906 -6.768,-9.096 -15.103,-10.059 -2.721,-0.314 -3.064,-0.399 -2.775,-0.683 0.426,-0.42 10.498,-0.618 17.072,-0.336 m 108.985,150.81 c 3.757,0.655 7.406,1.598 9.099,2.351 0.366,0.164 1.229,0.534 1.916,0.825 8.512,3.591 16.836,10.914 21.105,18.567 8.541,15.312 8.617,32.175 0.207,46.153 -0.263,0.436 -0.478,0.838 -0.478,0.892 0,0.192 -2.567,3.835 -3.567,5.061 -6.872,8.432 -17.123,14.439 -27.705,16.236 -21.718,3.688 -43.016,-8.734 -50.696,-29.567 -0.68,-1.846 -0.959,-2.869 -1.521,-5.583 -1.297,-6.258 -1.36,-13.308 -0.17,-18.917 0.185,-0.871 0.406,-1.984 0.492,-2.475 0.472,-2.715 3.428,-9.605 5.285,-12.317 0.393,-0.575 0.715,-1.079 0.715,-1.121 0,-0.131 1.076,-1.667 1.208,-1.726 0.069,-0.03 0.127,-0.143 0.128,-0.25 10e-4,-0.107 0.208,-0.43 0.458,-0.717 0.251,-0.288 0.793,-0.925 1.204,-1.417 1.555,-1.856 6.497,-6.644 6.858,-6.644 0.079,0 0.144,-0.069 0.144,-0.155 0,-0.156 1.417,-1.178 1.635,-1.178 0.065,0 0.309,-0.169 0.542,-0.375 0.233,-0.206 0.545,-0.45 0.693,-0.542 0.148,-0.091 0.683,-0.448 1.188,-0.792 3.902,-2.66 10.232,-5.087 16.025,-6.144 4.026,-0.735 11.5,-0.816 15.235,-0.165 m -1.373,15.643 c -0.29109,0.38691 -0.87455,1.14956 -1.61827,2.41047 -0.49012,0.84982 -1.2879,2.5228 -1.52972,2.98433 -0.242,0.53218 -1.35245,3.2868 -1.44698,3.68551 -0.14326,0.60434 -0.0561,1.46466 0.49467,1.21913 l 0.8181,-0.36471 1.15062,-2.45793 c 0.408,-0.573 1.18486,-2.08031 2.77386,-4.37131 l 3.01872,-3.48049 -0.845,-0.109 c -2.035,-0.261 -2.17147,-0.11519 -2.816,0.484 m -20.278,8.566 c -5.131,0.849 -9.849,4.707 -12.503,10.226 -3.396,7.063 -3.039,13.478 1.379,24.72 0.992,2.523 3.324,7.208 4.371,8.78 4.396,6.598 10.931,8.522 16.467,4.85 3.991,-2.648 7.546,-2.704 11.307,-0.181 3.892,2.611 9.252,2.67 12.064,0.133 0.184,-0.166 0.672,-0.575 1.083,-0.908 2.491,-2.014 3.78,-3.81 5.969,-8.311 2.325,-4.78 4.491,-10.932 5.309,-15.083 1.789,-9.067 -2.759,-19.106 -10.333,-22.813 -4.807,-2.352 -9.109,-2.125 -14.325,0.758 -4.663,2.576 -5.814,2.566 -10.684,-0.09 -3.614,-1.971 -6.802,-2.628 -10.104,-2.081"
       stroke="none"
       fill="#fc7c24"
       fill-rule="evenodd"
       sodipodi:nodetypes="cccccccccsscccccccccccccccssccccccccccccccccccccccscccccccssccccscccccccccccccccccscccccccsccccccccccccccccccccccsscccscsccccccccccsccccccccccccccscccsccccccccccccccsssscccccccccsccscscccscccccscscccscscccccccccccccsccccsccccccccscccccscccccccccccccccscccccccccccccccsccccccscccccccccscscccccscsccsssscccccccssccccccccccccscccccsc" />
  </g>
</svg>
